<svg width="179" height="99" viewBox="0 0 179 99" fill="none" xmlns="http://www.w3.org/2000/svg">
<path d="M11.6388 98.1303C11.6388 98.1303 -10.1678 74.7499 7.95094 49.4378C24.0275 26.9792 42.7704 28.5149 56.5224 37.6289C62.3797 41.5108 79.2661 38.1074 93.6385 15.2547C113.239 -15.9099 181.181 2.99142 168.793 50.9392C162.798 74.1425 187.038 74.9854 174.686 98.1794L11.6388 98.1303Z" fill="#DDE8FD"/>
<path d="M53.5174 52.9319C53.5174 52.9319 42.7297 37.5981 38.5135 39.5855C34.2972 41.5737 53.5174 52.9319 53.5174 52.9319Z" fill="#BED2FA"/>
<path d="M52.8308 48.8109C52.8308 48.8109 51.1833 37.2811 48.5848 37.7337C45.9872 38.1862 52.8308 48.8109 52.8308 48.8109Z" fill="#BED2FA"/>
<path d="M43.7098 84.7467C43.7098 84.7467 44.7471 79.6166 40.7194 78.9721C40.7194 78.9721 37.9881 78.8765 36.3796 79.9059C36.3796 79.9059 40.9469 82.5387 40.4036 83.3575C39.8603 84.1764 35.5261 80.0571 35.5261 80.0571C35.5261 80.0571 30.6301 82.1983 29.537 83.7498C29.537 83.7498 35.3227 84.7791 34.5947 85.4385C33.8666 86.0978 27.7957 85.3059 27.7957 85.3059C27.7957 85.3059 23.884 88.4524 25.5873 90.9572C27.2914 93.4619 29.2352 93.4443 29.8509 93.0085C30.4666 92.5735 33.4793 88.9773 33.8628 89.466C34.2455 89.9547 32.9202 92.9918 31.3517 93.9738C31.3517 93.9738 36.2774 95.6301 37.7606 93.5315C39.2446 91.4329 38.5583 89.8008 39.4981 88.521C40.4389 87.2413 41.5171 86.6413 41.3249 87.5195C41.1326 88.3977 39.1666 90.2431 39.1582 91.9216C39.1499 93.6001 38.9827 94.8214 40.9023 93.3377C42.8219 91.8539 45.3712 88.4218 44.54 86.5856C43.7098 84.7467 43.7098 84.7467 43.7098 84.7467Z" fill="#93B3F4"/>
<path d="M27.752 89.843C27.752 89.843 39.2408 82.8415 43.7096 84.7472C43.7096 84.7472 45.2429 86.1419 47.8813 86.7197L48.575 87.315C48.575 87.315 45.3423 86.3079 44.5417 86.5843C44.5408 86.5843 43.3558 81.7945 27.752 89.843Z" fill="#3A49CD"/>
<path d="M47.8805 86.7202C47.8805 86.7202 51.442 87.1755 53.4777 90.4027L53.043 90.6985C53.043 90.6985 50.3146 87.7087 48.1071 87.1764C45.9005 86.6432 47.8805 86.7202 47.8805 86.7202Z" fill="#3A49CD"/>
<path d="M47.2266 69.7771C47.2266 69.7771 55.569 65.1125 51.676 58.7814C51.676 58.7814 48.5611 54.894 45.2244 53.8943C45.2244 53.8943 47.0037 63.3357 45.2244 63.5573C43.445 63.7799 44.0013 52.8946 44.0013 52.8946C44.0013 52.8946 35.214 48.6742 31.7658 49.0072C31.7658 49.0072 37.2163 58.226 35.4369 58.0034C33.6575 57.7808 27.5393 48.4517 27.5393 48.4517C27.5393 48.4517 18.5292 46.7852 17.0832 52.1166C15.6372 57.4479 17.9729 60.1141 19.3074 60.447C20.6419 60.7799 29.2072 60.6695 28.9843 61.7796C28.7615 62.8905 22.9776 64.6673 19.7522 63.6677C19.7522 63.6677 23.3119 72.4423 27.9832 71.9981C32.6545 71.5539 34.1005 68.6661 36.9924 68.4435C39.8844 68.2219 41.9981 68.999 40.5521 69.7761C39.1061 70.5533 34.2119 70.0312 31.8763 72.0138C29.5406 73.9965 27.6498 75.2188 31.9877 76.1072C36.3256 76.9956 44.1118 76.4401 45.6692 73.1081C47.2266 69.7771 47.2266 69.7771 47.2266 69.7771Z" fill="#BED2FA"/>
<path d="M21.199 53.7822C21.199 53.7822 44.5574 61.3346 47.2274 69.7763C47.2274 69.7763 47.116 73.5524 49.4516 77.8841V79.5496C49.4516 79.5496 47.0045 73.8853 45.67 73.1073C45.67 73.1082 50.8976 65.7775 21.199 53.7822Z" fill="#3A49CD"/>
<path d="M49.4518 77.8835C49.4518 77.8835 53.0542 83.3456 50.9999 89.9947L50.0731 89.7462C50.0731 89.7462 50.973 82.4229 49.0877 78.7395C47.2034 75.056 49.4518 77.8835 49.4518 77.8835Z" fill="#3A49CD"/>
<path d="M55.705 30.7466L43.2234 95.1827C42.9699 96.493 43.9747 97.7097 45.312 97.7097H51.8946L55.705 30.7466Z" fill="#E75755"/>
<path d="M138.674 49.193C138.674 49.193 133.06 45.6162 136.02 41.3698C136.02 41.3698 138.341 38.7909 140.702 38.2289C140.702 38.2289 139.087 44.7231 140.315 44.9485C141.544 45.1738 141.592 37.5825 141.592 37.5825C141.592 37.5825 147.871 34.998 150.256 35.3671C150.256 35.3671 146.097 41.5599 147.344 41.4765C148.59 41.393 153.217 35.1491 153.217 35.1491C153.217 35.1491 159.549 34.3498 160.341 38.1148C161.133 41.8799 159.402 43.64 158.461 43.819C157.519 43.997 151.568 43.5788 151.679 44.3596C151.789 45.1404 155.74 46.6075 158.023 46.0409C158.023 46.0409 155.197 52.001 151.966 51.5058C148.735 51.0106 147.845 48.9444 145.843 48.6755C143.841 48.4056 142.34 48.8619 143.315 49.46C144.289 50.0582 147.713 49.8903 149.259 51.362C150.804 52.8338 152.07 53.7593 149.018 54.2035C145.966 54.6486 140.575 53.9521 139.624 51.5726C138.674 49.193 138.674 49.193 138.674 49.193Z" fill="#93B3F4"/>
<path d="M157.412 39.1094C157.412 39.1094 140.868 43.4299 138.674 49.1934C138.674 49.1934 138.601 51.8243 136.803 54.7426L136.736 55.9009C136.736 55.9009 138.664 52.0598 139.623 51.572C139.624 51.573 136.282 46.2667 157.412 39.1094Z" fill="#93B3F4"/>
<path d="M136.803 54.7442C136.803 54.7442 134.08 58.3989 135.242 63.1043L135.896 62.968C135.896 62.968 135.564 57.8397 137.022 55.3535C138.479 52.8672 136.803 54.7442 136.803 54.7442Z" fill="#93B3F4"/>
<path d="M123.558 33.6699C123.558 33.6699 114.932 31.7781 116.675 25.1401C116.675 25.1401 118.385 20.8706 121.067 19.0938C121.067 19.0938 122.027 27.9157 123.66 27.6356C125.292 27.3555 121.88 17.8826 121.88 17.8826C121.88 17.8826 128.516 11.8001 131.653 11.1723C131.653 11.1723 129.309 20.7797 130.823 20.1074C132.336 19.435 135.24 9.55039 135.24 9.55039C135.24 9.55039 142.758 5.66664 145.466 9.99274C148.175 14.3188 146.826 17.3003 145.736 17.9522C144.645 18.6041 137.044 20.7973 137.539 21.72C138.034 22.6427 143.624 22.6659 146.206 20.9188C146.206 20.9188 145.414 29.6275 141.166 30.4853C136.917 31.3422 134.863 29.1768 132.247 29.7546C129.631 30.3323 127.972 31.5852 129.458 31.8856C130.945 32.1861 135.131 30.4139 137.728 31.5425C140.325 32.6702 142.325 33.2442 138.729 35.1907C135.133 37.1372 128.101 38.7295 125.83 36.2006C123.558 33.6699 123.558 33.6699 123.558 33.6699Z" fill="white"/>
<path d="M142.275 12.5679C142.275 12.5679 123.654 25.4942 123.559 33.6707C123.559 33.6707 124.67 36.9795 123.768 41.4335L124.214 42.9062C124.214 42.9062 124.857 37.2438 125.829 36.1996C125.829 36.1996 119.241 31.1186 142.275 12.5679Z" fill="white"/>
<path d="M123.768 41.4331C123.768 41.4331 122.05 47.2253 125.649 52.5539L126.401 52.0865C126.401 52.0865 123.64 45.8528 124.318 42.0934C124.996 38.332 123.768 41.4331 123.768 41.4331Z" fill="white"/>
<path d="M55.856 30.4864L47.5833 93.7521C47.3093 95.8498 48.9447 97.7101 51.0631 97.7101H63.2001L56.3575 30.2573L55.856 30.4864Z" fill="#F41132"/>
<path d="M55.8554 30.4858L52.1518 93.3482C52.0125 95.7148 53.8968 97.7095 56.2705 97.7095H74.3717L55.8554 30.4858Z" fill="#6D89CF"/>
<path d="M55.7163 30.999L57.517 93.3485C57.3777 95.7151 59.2621 97.7099 61.6358 97.7099H79.7369L55.7163 30.999Z" fill="#3A49CD"/>
<path d="M142.379 97.711H71.0088C69.2267 97.711 67.6999 96.4396 67.3786 94.6888L56.5185 35.3847C56.0253 32.6926 58.0963 30.2119 60.8378 30.2119H131.368C133.15 30.2119 134.678 31.4833 134.998 33.2342L146.01 93.3636C146.423 95.6263 144.683 97.711 142.379 97.711Z" fill="white"/>
<path d="M57.9323 43.0863H136.852L134.829 31.8895C134.653 30.9186 133.806 30.2119 132.818 30.2119H56.3749C55.957 30.2119 55.6412 30.5903 55.7164 31.0002L57.9323 43.0863Z" fill="#FA7269"/>
<path d="M59.7773 26.8452C57.8902 26.8452 56.356 28.3772 56.356 30.2606H57.0135C57.0135 28.7389 58.2533 27.4999 59.7782 27.4999C61.3031 27.4999 62.5429 28.7379 62.5429 30.2606C62.5429 30.5667 62.4927 30.8597 62.4008 31.1342C62.1296 31.9456 61.4907 32.5902 60.6818 32.8693C60.4459 32.9509 60.1952 33.0028 59.9351 33.0167V33.6733C60.2388 33.6594 60.5313 33.6065 60.809 33.5184C61.9188 33.1679 62.7862 32.2647 63.0853 31.1342C63.1595 30.8551 63.1986 30.562 63.1986 30.2606C63.1986 28.3772 61.6634 26.8452 59.7773 26.8452Z" fill="#F41132"/>
<path d="M60.835 33.3201C60.835 33.3887 60.8257 33.4546 60.808 33.5176C60.7217 33.8311 60.4347 34.0601 60.0939 34.0601C59.6853 34.0601 59.3528 33.7291 59.3528 33.3201C59.3528 32.9111 59.6843 32.5801 60.0939 32.5801C60.3326 32.5801 60.5443 32.6932 60.6808 32.8685C60.7783 32.9928 60.835 33.1495 60.835 33.3201Z" fill="#F41132"/>
<path d="M72.0443 26.8452C70.1572 26.8452 68.623 28.3772 68.623 30.2606H69.2796C69.2796 28.7389 70.5204 27.4999 72.0443 27.4999C73.5683 27.4999 74.8091 28.7379 74.8091 30.2606C74.8091 30.5667 74.7589 30.8597 74.667 31.1342C74.3958 31.9456 73.7569 32.5902 72.9489 32.8693C72.713 32.9509 72.4623 33.0028 72.2013 33.0167V33.6733C72.505 33.6594 72.7975 33.6065 73.0752 33.5184C74.1859 33.1679 75.0524 32.2647 75.3523 31.1342C75.4266 30.8551 75.4656 30.562 75.4656 30.2606C75.4656 28.3772 73.9315 26.8452 72.0443 26.8452Z" fill="#F41132"/>
<path d="M73.1021 33.3201C73.1021 33.3887 73.0928 33.4546 73.0751 33.5176C72.9888 33.8311 72.7027 34.0601 72.361 34.0601C71.9523 34.0601 71.6199 33.7291 71.6199 33.3201C71.6199 32.9111 71.9514 32.5801 72.361 32.5801C72.6006 32.5801 72.8123 32.6932 72.9488 32.8685C73.0445 32.9928 73.1021 33.1495 73.1021 33.3201Z" fill="#F41132"/>
<path d="M84.3107 26.8452C82.4236 26.8452 80.8894 28.3772 80.8894 30.2606H81.546C81.546 28.7389 82.7858 27.4999 84.3107 27.4999C85.8356 27.4999 87.0754 28.7379 87.0754 30.2606C87.0754 30.5667 87.0253 30.8597 86.9333 31.1342C86.6621 31.9456 86.0232 32.5902 85.2152 32.8693C84.9794 32.9509 84.7286 33.0028 84.4676 33.0167V33.6733C84.7704 33.6594 85.0639 33.6065 85.3415 33.5184C86.4523 33.167 87.3187 32.2647 87.6178 31.1342C87.6921 30.8551 87.7311 30.562 87.7311 30.2606C87.732 28.3772 86.1969 26.8452 84.3107 26.8452Z" fill="#F41132"/>
<path d="M85.3687 33.3201C85.3687 33.3887 85.3594 33.4546 85.3417 33.5176C85.2554 33.8311 84.9684 34.0601 84.6276 34.0601C84.219 34.0601 83.8865 33.7291 83.8865 33.3201C83.8865 32.9111 84.218 32.5801 84.6276 32.5801C84.8662 32.5801 85.078 32.6932 85.2154 32.8685C85.312 32.9928 85.3687 33.1495 85.3687 33.3201Z" fill="#F41132"/>
<path d="M96.5797 26.8452C94.6926 26.8452 93.1584 28.3772 93.1584 30.2606H93.815C93.815 28.7389 95.0548 27.4999 96.5797 27.4999C98.1037 27.4999 99.3445 28.7379 99.3445 30.2606C99.3445 30.5667 99.2943 30.8597 99.2024 31.1342C98.9312 31.9456 98.2923 32.5902 97.4834 32.8693C97.2475 32.9509 96.9967 33.0028 96.7367 33.0167V33.6733C97.0395 33.6594 97.3329 33.6065 97.6106 33.5184C98.7213 33.167 99.5878 32.2647 99.8868 31.1342C99.9611 30.8551 100 30.562 100 30.2606C100.001 28.3772 98.4668 26.8452 96.5797 26.8452Z" fill="#F41132"/>
<path d="M97.6378 33.3201C97.6378 33.3887 97.6285 33.4546 97.6109 33.5176C97.5245 33.8311 97.2375 34.0601 96.8967 34.0601C96.4871 34.0601 96.1555 33.7291 96.1555 33.3201C96.1555 32.9111 96.4871 32.5801 96.8967 32.5801C97.1353 32.5801 97.3471 32.6932 97.4836 32.8685C97.5802 32.9928 97.6378 33.1495 97.6378 33.3201Z" fill="#F41132"/>
<path d="M108.847 26.8452C106.96 26.8452 105.426 28.3772 105.426 30.2606H106.082C106.082 28.7389 107.323 27.4999 108.847 27.4999C110.371 27.4999 111.612 28.7379 111.612 30.2606C111.612 30.5667 111.561 30.8597 111.469 31.1342C111.198 31.9456 110.559 32.5902 109.75 32.8693C109.515 32.9509 109.264 33.0028 109.004 33.0167V33.6733C109.307 33.6594 109.6 33.6065 109.878 33.5184C110.988 33.1679 111.855 32.2647 112.155 31.1342C112.229 30.8551 112.268 30.562 112.268 30.2606C112.269 28.3772 110.734 26.8452 108.847 26.8452Z" fill="#F41132"/>
<path d="M109.904 33.3201C109.904 33.3887 109.895 33.4546 109.877 33.5176C109.791 33.8311 109.505 34.0601 109.163 34.0601C108.754 34.0601 108.422 33.7291 108.422 33.3201C108.422 32.9111 108.753 32.5801 109.163 32.5801C109.403 32.5801 109.614 32.6932 109.75 32.8685C109.847 32.9928 109.904 33.1495 109.904 33.3201Z" fill="#F41132"/>
<path d="M121.114 26.8452C119.227 26.8452 117.693 28.3772 117.693 30.2606H118.349C118.349 28.7389 119.589 27.4999 121.114 27.4999C122.639 27.4999 123.879 28.7379 123.879 30.2606C123.879 30.5667 123.828 30.8597 123.737 31.1342C123.465 31.9456 122.826 32.5902 122.018 32.8693C121.782 32.9509 121.532 33.0028 121.271 33.0167V33.6733C121.575 33.6594 121.867 33.6065 122.145 33.5184C123.255 33.1679 124.122 32.2647 124.421 31.1342C124.495 30.8551 124.534 30.562 124.534 30.2606C124.534 28.3772 123 26.8452 121.114 26.8452Z" fill="#F41132"/>
<path d="M122.17 33.3201C122.17 33.3887 122.161 33.4546 122.144 33.5176C122.057 33.8311 121.77 34.0601 121.429 34.0601C121.021 34.0601 120.688 33.7291 120.688 33.3201C120.688 32.9111 121.02 32.5801 121.429 32.5801C121.668 32.5801 121.88 32.6932 122.016 32.8685C122.114 32.9928 122.17 33.1495 122.17 33.3201Z" fill="#F41132"/>
<path d="M133.38 26.8452C131.493 26.8452 129.959 28.3772 129.959 30.2606H130.616C130.616 28.7389 131.855 27.4999 133.38 27.4999C134.905 27.4999 136.145 28.7379 136.145 30.2606C136.145 30.5667 136.095 30.8597 136.003 31.1342C135.732 31.9456 135.093 32.5902 134.284 32.8693C134.048 32.9509 133.798 33.0028 133.537 33.0167V33.6733C133.841 33.6594 134.133 33.6065 134.411 33.5184C135.521 33.1679 136.388 32.2647 136.687 31.1342C136.762 30.8551 136.801 30.562 136.801 30.2606C136.803 28.3772 135.267 26.8452 133.38 26.8452Z" fill="#F41132"/>
<path d="M134.438 33.3201C134.438 33.3887 134.429 33.4546 134.411 33.5176C134.325 33.8311 134.038 34.0601 133.697 34.0601C133.289 34.0601 132.956 33.7291 132.956 33.3201C132.956 32.9111 133.288 32.5801 133.697 32.5801C133.936 32.5801 134.148 32.6932 134.284 32.8685C134.381 32.9928 134.438 33.1495 134.438 33.3201Z" fill="#F41132"/>
<path d="M103.571 64.1216H99.5812C99.1197 64.1216 98.6702 63.7451 98.581 63.2842L97.8112 59.3003C97.722 58.8394 98.0266 58.4629 98.4882 58.4629H102.478C102.939 58.4629 103.389 58.8394 103.478 59.3003L104.248 63.2842C104.336 63.7451 104.031 64.1216 103.571 64.1216Z" fill="#6D89CF"/>
<path d="M113.638 64.1216H109.649C109.187 64.1216 108.738 63.7451 108.648 63.2842L107.879 59.3003C107.789 58.8394 108.094 58.4629 108.556 58.4629H112.545C113.007 58.4629 113.456 58.8394 113.545 59.3003L114.315 63.2842C114.404 63.7451 114.1 64.1216 113.638 64.1216Z" fill="#6D89CF"/>
<path d="M123.705 64.1216H119.715C119.253 64.1216 118.804 63.7451 118.715 63.2842L117.945 59.3003C117.856 58.8394 118.16 58.4629 118.622 58.4629H122.611C123.073 58.4629 123.522 58.8394 123.612 59.3003L124.382 63.2842C124.471 63.7451 124.166 64.1216 123.705 64.1216Z" fill="#F41132"/>
<path d="M73.3683 64.1216H69.3786C68.917 64.1216 68.4676 63.7451 68.3784 63.2842L67.6085 59.3003C67.5194 58.8394 67.824 58.4629 68.2855 58.4629H72.2752C72.7367 58.4629 73.1862 58.8394 73.2754 59.3003L74.0453 63.2842C74.1344 63.7451 73.8298 64.1216 73.3683 64.1216Z" fill="#6D89CF"/>
<path d="M68.9965 52.161H67.2821C67.0843 52.161 66.8902 51.9987 66.8521 51.8012L66.5215 50.0893C66.4834 49.8918 66.6143 49.7295 66.8122 49.7295H68.5265C68.7243 49.7295 68.9184 49.8918 68.9565 50.0893L69.2871 51.8012C69.3252 51.9987 69.1952 52.161 68.9965 52.161Z" fill="#FA7269"/>
<path d="M83.4357 64.1216H79.446C78.9844 64.1216 78.5349 63.7451 78.4458 63.2842L77.6759 59.3003C77.5867 58.8394 77.8914 58.4629 78.3529 58.4629H82.3426C82.8042 58.4629 83.2536 58.8394 83.3428 59.3003L84.1127 63.2842C84.2018 63.7451 83.8972 64.1216 83.4357 64.1216Z" fill="#6D89CF"/>
<path d="M93.5038 64.1216H89.5141C89.0526 64.1216 88.6031 63.7451 88.5139 63.2842L87.744 59.3003C87.6549 58.8394 87.9595 58.4629 88.421 58.4629H92.4107C92.8723 58.4629 93.3218 58.8394 93.4109 59.3003L94.1808 63.2842C94.269 63.7451 93.9644 64.1216 93.5038 64.1216Z" fill="#6D89CF"/>
<path d="M133.772 64.1216H129.782C129.321 64.1216 128.871 63.7451 128.782 63.2842L128.012 59.3003C127.923 58.8394 128.228 58.4629 128.689 58.4629H132.679C133.14 58.4629 133.59 58.8394 133.679 59.3003L134.449 63.2842C134.538 63.7451 134.233 64.1216 133.772 64.1216Z" fill="#F41132"/>
<path d="M101.899 55.4688H97.9094C97.4488 55.4688 96.9983 55.0923 96.9092 54.6314L96.1393 50.6475C96.0501 50.1866 96.3547 49.8101 96.8163 49.8101H100.806C101.268 49.8101 101.717 50.1866 101.806 50.6475L102.576 54.6314C102.665 55.0923 102.361 55.4688 101.899 55.4688Z" fill="#6D89CF"/>
<path d="M111.966 55.4688H107.976C107.515 55.4688 107.065 55.0923 106.976 54.6314L106.206 50.6475C106.117 50.1866 106.422 49.8101 106.883 49.8101H110.873C111.335 49.8101 111.784 50.1866 111.873 50.6475L112.643 54.6314C112.732 55.0923 112.428 55.4688 111.966 55.4688Z" fill="#6D89CF"/>
<path d="M122.033 55.4688H118.044C117.582 55.4688 117.133 55.0923 117.043 54.6314L116.274 50.6475C116.184 50.1866 116.489 49.8101 116.951 49.8101H120.94C121.402 49.8101 121.851 50.1866 121.94 50.6475L122.71 54.6314C122.799 55.0923 122.495 55.4688 122.033 55.4688Z" fill="#F41132"/>
<path d="M132.101 55.4688H128.111C127.649 55.4688 127.2 55.0923 127.111 54.6314L126.341 50.6475C126.252 50.1866 126.556 49.8101 127.018 49.8101H131.008C131.468 49.8101 131.919 50.1866 132.008 50.6475L132.778 54.6314C132.866 55.0923 132.561 55.4688 132.101 55.4688Z" fill="#F41132"/>
<path d="M105.341 73.292H101.352C100.89 73.292 100.441 72.9155 100.352 72.4546L99.5817 68.4707C99.4925 68.0098 99.7971 67.6333 100.259 67.6333H104.248C104.71 67.6333 105.159 68.0098 105.249 68.4707L106.019 72.4546C106.108 72.9155 105.803 73.292 105.341 73.292Z" fill="#6D89CF"/>
<path d="M115.409 73.292H111.419C110.957 73.292 110.508 72.9155 110.419 72.4546L109.649 68.4707C109.56 68.0098 109.864 67.6333 110.326 67.6333H114.315C114.777 67.6333 115.227 68.0098 115.316 68.4707L116.086 72.4546C116.175 72.9155 115.87 73.292 115.409 73.292Z" fill="#6D89CF"/>
<path d="M125.477 73.292H121.487C121.026 73.292 120.576 72.9155 120.487 72.4546L119.717 68.4707C119.628 68.0098 119.932 67.6333 120.394 67.6333H124.384C124.844 67.6333 125.295 68.0098 125.384 68.4707L126.154 72.4546C126.242 72.9155 125.937 73.292 125.477 73.292Z" fill="#F41132"/>
<path d="M75.1405 73.292H71.1508C70.6893 73.292 70.2398 72.9155 70.1506 72.4546L69.3807 68.4707C69.2916 68.0098 69.5962 67.6333 70.0577 67.6333H74.0474C74.509 67.6333 74.9584 68.0098 75.0476 68.4707L75.8175 72.4546C75.9057 72.9155 75.602 73.292 75.1405 73.292Z" fill="#6D89CF"/>
<path d="M85.2076 73.292H81.218C80.7564 73.292 80.3069 72.9155 80.2178 72.4546L79.4479 68.4707C79.3587 68.0098 79.6633 67.6333 80.1249 67.6333H84.1146C84.5752 67.6333 85.0256 68.0098 85.1148 68.4707L85.8847 72.4546C85.9738 72.9155 85.6692 73.292 85.2076 73.292Z" fill="#6D89CF"/>
<path d="M95.275 73.292H91.2853C90.8238 73.292 90.3743 72.9155 90.2851 72.4546L89.5153 68.4707C89.4261 68.0098 89.7307 67.6333 90.1923 67.6333H94.1819C94.6435 67.6333 95.093 68.0098 95.1821 68.4707L95.952 72.4546C96.0412 72.9155 95.7366 73.292 95.275 73.292Z" fill="#6D89CF"/>
<path d="M135.544 73.292H131.554C131.093 73.292 130.643 72.9155 130.554 72.4546L129.784 68.4707C129.695 68.0098 130 67.6333 130.461 67.6333H134.451C134.912 67.6333 135.362 68.0098 135.451 68.4707L136.221 72.4546C136.309 72.9155 136.004 73.292 135.544 73.292Z" fill="#F41132"/>
<path d="M107.113 82.4629H103.124C102.662 82.4629 102.213 82.0864 102.124 81.6255L101.354 77.6416C101.264 77.1816 101.569 76.8042 102.031 76.8042H106.02C106.482 76.8042 106.931 77.1807 107.021 77.6416L107.79 81.6255C107.88 82.0864 107.575 82.4629 107.113 82.4629Z" fill="#6D89CF"/>
<path d="M117.181 82.4629H113.191C112.729 82.4629 112.28 82.0864 112.191 81.6255L111.421 77.6416C111.332 77.1816 111.636 76.8042 112.098 76.8042H116.087C116.549 76.8042 116.998 77.1807 117.088 77.6416L117.858 81.6255C117.947 82.0864 117.642 82.4629 117.181 82.4629Z" fill="#6D89CF"/>
<path d="M127.248 82.4629H123.258C122.797 82.4629 122.347 82.0864 122.258 81.6255L121.488 77.6416C121.399 77.1816 121.704 76.8042 122.165 76.8042H126.155C126.616 76.8042 127.066 77.1807 127.155 77.6416L127.925 81.6255C128.014 82.0864 127.71 82.4629 127.248 82.4629Z" fill="#F41132"/>
<path d="M76.9115 82.4629H72.9228C72.4612 82.4629 72.0118 82.0864 71.9226 81.6255L71.1527 77.6416C71.0636 77.1816 71.3682 76.8042 71.8297 76.8042H75.8194C76.2809 76.8042 76.7304 77.1807 76.8196 77.6416L77.5895 81.6255C77.6777 82.0864 77.3731 82.4629 76.9115 82.4629Z" fill="#6D89CF"/>
<path d="M86.9798 82.4629H82.9902C82.5286 82.4629 82.0791 82.0864 81.99 81.6255L81.2201 77.6416C81.1309 77.1816 81.4355 76.8042 81.8971 76.8042H85.8868C86.3483 76.8042 86.7978 77.1807 86.887 77.6416L87.6568 81.6255C87.7451 82.0864 87.4405 82.4629 86.9798 82.4629Z" fill="#FA7269"/>
<path d="M97.0469 82.4629H93.0573C92.5957 82.4629 92.1463 82.0864 92.0571 81.6255L91.2872 77.6416C91.1981 77.1816 91.5027 76.8042 91.9642 76.8042H95.9539C96.4154 76.8042 96.8649 77.1807 96.9541 77.6416L97.724 81.6255C97.8122 82.0864 97.5076 82.4629 97.0469 82.4629Z" fill="#6D89CF"/>
<path d="M137.314 82.4629H133.325C132.863 82.4629 132.414 82.0864 132.324 81.6255L131.555 77.6416C131.465 77.1816 131.77 76.8042 132.232 76.8042H136.221C136.683 76.8042 137.132 77.1807 137.221 77.6416L137.991 81.6255C138.08 82.0864 137.776 82.4629 137.314 82.4629Z" fill="#F41132"/>
<path d="M108.785 91.1157H104.796C104.334 91.1157 103.885 90.7392 103.795 90.2783L103.026 86.2944C102.936 85.8335 103.241 85.457 103.703 85.457H107.692C108.154 85.457 108.603 85.8335 108.692 86.2944L109.462 90.2783C109.551 90.7383 109.246 91.1157 108.785 91.1157Z" fill="#6D89CF"/>
<path d="M118.853 91.1157H114.863C114.401 91.1157 113.952 90.7392 113.863 90.2783L113.093 86.2944C113.004 85.8335 113.308 85.457 113.77 85.457H117.76C118.22 85.457 118.671 85.8335 118.76 86.2944L119.53 90.2783C119.619 90.7383 119.314 91.1157 118.853 91.1157Z" fill="#6D89CF"/>
<path d="M128.92 91.1157H124.93C124.469 91.1157 124.019 90.7392 123.93 90.2783L123.16 86.2944C123.071 85.8335 123.375 85.457 123.837 85.457H127.827C128.288 85.457 128.738 85.8335 128.827 86.2944L129.597 90.2783C129.686 90.7383 129.381 91.1157 128.92 91.1157Z" fill="#F41132"/>
<path d="M78.5836 91.1157H74.5939C74.1324 91.1157 73.6829 90.7392 73.5937 90.2783L72.8239 86.2944C72.7347 85.8335 73.0393 85.457 73.5009 85.457H77.4905C77.9521 85.457 78.4016 85.8335 78.4907 86.2944L79.2606 90.2783C79.3497 90.7383 79.0451 91.1157 78.5836 91.1157Z" fill="#6D89CF"/>
<path d="M88.6501 91.1157H84.6613C84.1998 91.1157 83.7503 90.7392 83.6611 90.2783L82.8912 86.2944C82.8021 85.8335 83.1067 85.457 83.5683 85.457H87.5579C88.0195 85.457 88.469 85.8335 88.5581 86.2944L89.328 90.2783C89.4162 90.7383 89.1116 91.1157 88.6501 91.1157Z" fill="#6D89CF"/>
<path d="M98.7181 91.1157H94.7285C94.2669 91.1157 93.8174 90.7392 93.7283 90.2783L92.9584 86.2944C92.8692 85.8335 93.1738 85.457 93.6354 85.457H97.625C98.0866 85.457 98.5361 85.8335 98.6252 86.2944L99.3951 90.2783C99.4833 90.7383 99.1787 91.1157 98.7181 91.1157Z" fill="#6D89CF"/>
<path d="M81.0883 50.5896H70.5198C70.3638 50.5896 70.2366 50.4626 70.2366 50.3068C70.2366 50.151 70.3638 50.0239 70.5198 50.0239H81.0893C81.2453 50.0239 81.3725 50.151 81.3725 50.3068C81.3716 50.4626 81.2444 50.5896 81.0883 50.5896Z" fill="#6D89CF"/>
<path d="M81.4105 51.8665H70.8411C70.6851 51.8665 70.5579 51.7394 70.5579 51.5836C70.5579 51.4278 70.6851 51.3008 70.8411 51.3008H81.4105C81.5666 51.3008 81.6938 51.4278 81.6938 51.5836C81.6938 51.7394 81.5656 51.8665 81.4105 51.8665Z" fill="#6D89CF"/>
<path d="M69.753 41.0702H66.1264C65.8292 41.0702 65.5859 40.8272 65.5859 40.5304C65.5859 40.2337 65.8292 39.9907 66.1264 39.9907H69.753C70.0502 39.9907 70.2935 40.2337 70.2935 40.5304C70.2935 40.8272 70.0502 41.0702 69.753 41.0702Z" fill="white"/>
<path d="M79.7059 41.0702H76.0793C75.7821 41.0702 75.5388 40.8272 75.5388 40.5304C75.5388 40.2337 75.7821 39.9907 76.0793 39.9907H79.7059C80.003 39.9907 80.2464 40.2337 80.2464 40.5304C80.2454 40.8272 80.003 41.0702 79.7059 41.0702Z" fill="white"/>
<path d="M89.6578 41.0702H86.0312C85.734 41.0702 85.4907 40.8272 85.4907 40.5304C85.4907 40.2337 85.734 39.9907 86.0312 39.9907H89.6578C89.9549 39.9907 90.1983 40.2337 90.1983 40.5304C90.1983 40.8272 89.9549 41.0702 89.6578 41.0702Z" fill="white"/>
<path d="M99.6098 41.0702H95.9834C95.6862 41.0702 95.4429 40.8272 95.4429 40.5304C95.4429 40.2337 95.6862 39.9907 95.9834 39.9907H99.6098C99.907 39.9907 100.15 40.2337 100.15 40.5304C100.15 40.8272 99.907 41.0702 99.6098 41.0702Z" fill="white"/>
<path d="M109.562 41.0702H105.935C105.638 41.0702 105.395 40.8272 105.395 40.5304C105.395 40.2337 105.638 39.9907 105.935 39.9907H109.562C109.859 39.9907 110.102 40.2337 110.102 40.5304C110.101 40.8272 109.859 41.0702 109.562 41.0702Z" fill="white"/>
<path d="M119.514 41.0702H115.887C115.59 41.0702 115.347 40.8272 115.347 40.5304C115.347 40.2337 115.59 39.9907 115.887 39.9907H119.514C119.811 39.9907 120.054 40.2337 120.054 40.5304C120.054 40.8272 119.811 41.0702 119.514 41.0702Z" fill="white"/>
<path d="M129.466 41.0702H125.839C125.542 41.0702 125.299 40.8272 125.299 40.5304C125.299 40.2337 125.542 39.9907 125.839 39.9907H129.466C129.763 39.9907 130.006 40.2337 130.006 40.5304C130.006 40.8272 129.763 41.0702 129.466 41.0702Z" fill="white"/>
<path d="M106.527 55.5457C105.726 55.5457 105.143 55.2916 104.825 54.7992C104.215 53.8542 104.685 52.5299 106.223 50.8635C107.346 49.6459 108.657 48.6814 108.67 48.6722C108.721 48.6341 108.794 48.6453 108.832 48.6972C108.87 48.7482 108.859 48.8205 108.807 48.8586C108.756 48.8966 103.702 52.6329 105.019 54.6749C105.436 55.3222 106.329 55.3648 107.006 55.286C108.258 55.1413 109.891 54.4681 111.374 53.4851C112.908 52.4678 113.989 51.3207 114.34 50.3377C114.569 49.6932 114.499 49.2369 114.128 48.981C113.65 48.6508 112.652 48.6499 111.456 48.9801C110.312 49.2963 109.161 49.8647 108.45 50.4647C108.402 50.5055 108.329 50.5 108.287 50.4508C108.245 50.4017 108.251 50.3293 108.301 50.2876C109.034 49.6681 110.22 49.0811 111.394 48.7566C112.673 48.4032 113.718 48.4153 114.259 48.7899C114.581 49.0116 114.893 49.4734 114.557 50.4137C114.19 51.4422 113.077 52.631 111.502 53.6761C109.99 54.6786 108.319 55.3658 107.033 55.5141C106.857 55.5355 106.688 55.5457 106.527 55.5457Z" fill="#ED6966"/>
<path d="M127.469 48.9806L127.057 48.2054C127.057 48.2054 127.261 46.8236 125.527 45.9491C125.527 45.9491 124.892 45.6913 124.535 46.2078C124.205 46.6836 125.163 46.5973 125.112 47.4106C125.06 48.2239 125.447 48.7015 125.985 48.9667L126.43 49.4814L127.469 48.9806Z" fill="#FC9290"/>
<path d="M143.86 47.1242C143.86 47.1242 142.37 54.4243 134.174 56.8086C131.616 57.5532 125.803 49.1422 125.803 49.1422C125.803 49.1422 126.007 48.3669 127.288 48.5449C127.288 48.5449 132.947 52.2859 133.66 52.693C134.292 53.0537 138.45 48.0572 140.345 47.2513C142.24 46.4454 143.86 47.1242 143.86 47.1242Z" fill="#060632"/>
<path d="M119.896 46.9914L120.225 48.7622L129.146 47.1124L128.818 45.3415L119.896 46.9914Z" fill="#ED6966"/>
<path d="M117.983 48.2637L120.221 48.7654L119.893 46.9941L117.983 48.2637Z" fill="#FC9290"/>
<path d="M129.961 45.7401L130.065 46.3003C130.129 46.6443 129.901 46.9754 129.556 47.0394L129.144 47.1154L128.815 45.3442L129.263 45.2616C129.588 45.2013 129.901 45.4156 129.961 45.7401Z" fill="#FC9290"/>
<path d="M153.643 93.0133C153.643 93.0133 154.66 93.9397 154.462 94.5981C154.263 95.2566 153.345 95.6952 153.222 96.5001C153.098 97.3051 152.602 97.7437 152.156 97.7437C151.71 97.7437 150.027 97.7437 150.027 97.7437C150.027 97.7437 149.698 97.1771 150.492 97.0065C151.286 96.8358 151.586 95.8899 151.535 95.0127C151.485 94.1345 151.61 92.9641 151.61 92.9641L153.296 92.5737L153.643 93.0133Z" fill="#060632"/>
<path d="M141.17 95.4107C141.17 95.4107 141.353 97.5195 140.906 97.7393L135.194 97.7272C135.194 97.7272 135.194 97.0688 136.111 96.9223C137.029 96.7757 138.641 96.2397 138.914 95.0443C139.186 93.8499 141.17 95.4107 141.17 95.4107Z" fill="#060632"/>
<path d="M136.347 65.6227C136.347 65.6227 136.648 69.3192 137.002 73.7621C137.483 79.7982 138.063 87.2115 138.12 88.6164C138.219 91.0554 138.615 94.9567 138.615 94.9567C138.615 94.9567 139.557 95.8832 141.442 95.4927C141.442 95.4927 143.122 89.924 143.603 84.0316C143.61 83.9352 143.617 83.8378 143.625 83.7404C144.072 77.7423 144.765 65.1108 144.765 65.1108L136.347 65.6227Z" fill="#FA7269"/>
<path d="M136.347 65.6227C136.347 65.6227 136.648 69.3192 137.002 73.7621L143.603 84.0316C143.611 83.9351 143.618 83.8378 143.626 83.7404C144.072 77.7423 144.766 65.1108 144.766 65.1108L136.347 65.6227Z" fill="#E75755"/>
<path d="M137.723 66.0619C137.723 66.0619 143.154 79.4491 146.725 85.7403C150.297 92.0314 151.412 93.7869 151.412 93.7869C151.412 93.7869 153.458 92.982 153.644 92.4339C153.644 92.4339 152.278 80.2884 149.886 77.3283C148.535 75.6553 146.948 70.6347 146.873 68.8792C146.799 67.1237 146.389 63.6489 146.389 63.6489L137.723 66.0619Z" fill="#FA7269"/>
<path d="M144.869 45.4321C144.869 45.4321 141.194 47.2024 139.075 46.5458C139.075 46.5458 139.597 45.8892 140.509 45.4005C140.436 44.9758 140.379 44.6076 140.347 44.2951C140.257 43.5736 140.257 43.1656 140.257 43.1656L141.675 42.0519L143.02 40.9863C142.913 43.9817 144.869 45.4321 144.869 45.4321Z" fill="#FC9290"/>
<path d="M136.115 65.9284C136.18 65.985 136.253 66.0165 136.336 66.0165C137.135 66.0008 139.457 66.4412 141.42 66.2409C143.082 66.0805 144.549 65.6001 146.122 64.912C146.333 64.8156 146.815 64.5596 146.806 64.3352C146.798 64.0784 146.774 63.7185 146.741 63.253C146.675 62.3377 146.582 61.0385 146.553 59.4972C146.53 58.3547 146.543 57.0806 146.626 55.7303C146.631 55.6395 146.635 55.5486 146.639 55.4568C146.663 54.9616 146.674 54.4636 146.674 53.9758C146.683 52.4058 146.569 50.9072 146.341 49.57C145.941 47.246 145.191 45.4284 144.084 44.6188C143.937 44.5066 143.025 44.9471 142.178 45.3561C141.403 45.7326 140.629 45.7724 139.897 45.6287L139.163 46.2695C138.274 47.0782 137.296 48.1919 136.865 49.8741C136.506 51.3004 136.294 53.8793 136.18 56.5557C136.123 57.7733 136.083 58.9909 136.067 60.152V60.1918C136.058 60.3115 136.058 60.4329 136.058 60.5535C136.018 63.5247 136.058 65.8885 136.115 65.9284Z" fill="#0B0754"/>
<path d="M143.044 42.131C143.044 42.131 142.115 43.8216 140.347 44.2945C140.257 43.5731 140.257 43.165 140.257 43.165L141.675 42.0513L143.044 42.131Z" fill="#EA8888"/>
<path d="M139.611 43.1156C139.611 43.1156 143.117 43.6877 143.445 41.5363C143.774 39.3839 144.448 38.0086 142.224 37.5524C140 37.0961 139.438 37.8528 139.151 38.5446C138.863 39.2365 138.707 42.9115 139.611 43.1156Z" fill="#FC9290"/>
<path d="M144.719 37.2943C144.75 37.2582 144.824 37.2285 144.987 37.2192C144.987 37.2192 144.856 37.1376 144.682 37.133C144.647 36.9058 144.527 36.5042 144.136 36.4069C144.136 36.4069 144.345 36.5191 144.373 36.7602C143.92 36.2956 142.951 35.958 140.264 36.1695C136.723 36.4486 137.89 38.7123 138.349 38.9821C138.808 39.252 139.961 38.512 140.816 38.5797C141.67 38.6473 141.832 39.8798 142.122 40.0486C142.412 40.2174 142.298 39.9187 142.69 39.7416C143.082 39.5645 143.119 40.2136 143.005 40.6347C142.892 41.0566 143.431 41.613 143.431 41.613C143.431 41.613 143.431 41.613 143.975 41.0279C144.519 40.4427 145.033 37.963 144.785 37.4344C144.762 37.3889 144.741 37.3416 144.719 37.2943Z" fill="#0B0B36"/>
<path d="M127.049 48.1685C127.049 48.1685 127.169 47.6928 126.839 47.4785C126.508 47.2643 126.205 46.6829 126.065 46.7617C125.776 46.9249 126.223 47.4322 126.141 48.0656C126.113 48.2872 126.63 48.8687 127.049 48.1685Z" fill="#FC9290"/>
<path d="M146.552 59.4959C146.53 58.3534 146.543 57.0792 146.625 55.729C146.63 55.6381 146.635 55.5472 146.638 55.4554C146.305 53.8066 145.801 52.3442 145.06 52.2969C145.06 52.2959 142.849 55.7651 146.552 59.4959Z" fill="#060632"/>
<path d="M149.476 65.4779C149.476 65.4779 149.292 67.2668 149.09 67.6052C148.887 67.9437 148.026 69.025 147.661 69.2365C147.294 69.4488 147.884 67.812 147.81 67.493C147.735 67.1749 147.508 68.0745 147.347 68.0958C147.185 68.1171 147.227 67.3076 147.22 67.0127C147.215 66.7178 148.007 65.9907 148.286 65.3629C148.565 64.7351 149.476 65.4779 149.476 65.4779Z" fill="#FC9290"/>
<path d="M144.082 44.5996C144.082 44.5996 146.3 45.6484 147.364 47.2611C149.014 49.7622 150.926 58.8771 150.961 59.721C150.996 60.5649 149.565 66.524 149.565 66.524C149.565 66.524 148.114 66.4285 147.739 65.6968C147.739 65.6968 148.029 59.5745 147.845 59.1803C147.661 58.7871 141.795 50.9668 142.454 49.2985C143.115 47.6302 144.082 44.5996 144.082 44.5996Z" fill="#0B0754"/>
<path d="M119.13 47.501L119.247 48.5461L117.983 48.2632L119.13 47.501Z" fill="#ED6966"/>
<path d="M167.127 97.7101H160.735C160.392 97.4199 160.972 96.7614 161.577 96.7169C161.84 96.6974 162.172 96.7522 162.553 96.8319C162.641 95.6653 163.144 90.4211 165.036 90.6317C167.165 90.8672 165.036 92.9408 164.435 94.1686C163.989 95.0783 163.519 96.3822 163.304 96.997C163.476 97.0341 163.656 97.0712 163.838 97.1046C164.12 96.2393 165.169 93.3302 166.505 93.499C168.072 93.6975 167.442 94.8641 166.331 95.5568C165.516 96.0659 164.515 96.7902 164.04 97.1398C164.443 97.2056 164.864 97.2502 165.29 97.2399C166.385 97.2149 166.92 97.5367 167.127 97.7101Z" fill="#3A49CD"/>
<path d="M21.211 97.4066C20.872 96.8752 19.8532 95.4962 18.4946 95.6789C17.0152 95.8774 20.1281 96.852 21.0819 97.4112C20.8702 97.414 20.6881 97.3973 20.5544 97.35C19.9173 97.1228 18.8261 97.5587 18.4769 97.7108H24.5441C24.5023 97.5661 24.3927 97.3287 24.1104 97.1571C24.011 97.0959 23.8104 97.0876 23.5522 97.1071C23.9125 96.6823 24.1633 95.3256 23.1594 95.6752C22.4257 95.9302 22.4276 96.7593 22.5 97.2499C22.344 97.274 22.1861 97.299 22.0292 97.3213C21.7273 95.7837 20.6584 91.2786 18.4936 91.159C16.2982 91.0375 20.3547 95.831 21.706 97.3639C21.5323 97.3843 21.3652 97.3992 21.211 97.4066Z" fill="#3A49CD"/>
</svg>
